<?xml version="1.0" standalone="no"?>
<!DOCTYPE svg PUBLIC "-//W3C//DTD SVG 20010904//EN"
 "http://www.w3.org/TR/2001/REC-SVG-20010904/DTD/svg10.dtd">
<svg version="1.0" xmlns="http://www.w3.org/2000/svg"
 width="284.000000pt" height="296.000000pt" viewBox="0 0 284.000000 296.000000"
 preserveAspectRatio="xMidYMid meet">

<g transform="translate(0.000000,296.000000) scale(0.100000,-0.100000)"
fill="#000000" stroke="none">
<path d="M1935 1803 c-98 -20 -193 -60 -329 -137 -141 -80 -239 -121 -326
-135 -40 -7 -281 -11 -622 -11 l-558 0 0 -80 0 -80 586 0 c722 0 687 -5 927
138 118 70 211 112 297 132 25 6 213 13 418 17 425 7 382 -6 360 109 l-11 64
-336 -1 c-258 0 -352 -4 -406 -16z"/>
<path d="M1964 1520 c-94 -13 -175 -49 -373 -164 -51 -30 -128 -68 -170 -83
l-76 -28 -612 -3 -612 -3 6 -37 c3 -20 11 -55 17 -77 l12 -40 564 -3 c315 -1
592 2 625 7 82 13 155 41 255 101 113 67 220 118 300 143 60 19 96 21 436 25
l372 3 7 75 c4 42 5 77 3 78 -8 7 -707 12 -754 6z"/>
<path d="M1967 1225 c-67 -14 -158 -55 -382 -173 -61 -32 -137 -64 -170 -72
-46 -11 -191 -15 -637 -18 -439 -2 -578 -6 -578 -15 0 -7 15 -39 34 -72 l33
-60 594 0 c689 0 612 -10 847 121 76 42 178 90 227 107 l90 32 320 5 320 5 17
65 c9 36 16 71 17 78 1 18 -637 15 -732 -3z"/>
<path d="M2054 950 c-83 -12 -120 -28 -295 -121 -258 -139 -218 -132 -872
-137 -301 -2 -547 -6 -547 -9 0 -12 103 -133 161 -188 110 -104 197 -165 329
-231 187 -92 313 -123 536 -131 254 -9 434 29 643 137 254 131 480 373 597
636 l24 54 -263 -1 c-144 -1 -285 -5 -313 -9z"/>
</g>
</svg>
